<?xml version="1.0" standalone="no"?>
<!DOCTYPE svg PUBLIC "-//W3C//DTD SVG 20010904//EN"
 "http://www.w3.org/TR/2001/REC-SVG-20010904/DTD/svg10.dtd">
<svg version="1.0" xmlns="http://www.w3.org/2000/svg"
 width="152.000000pt" height="98.000000pt" viewBox="0 0 152.000000 98.000000"
 preserveAspectRatio="xMidYMid meet">

<g transform="translate(0.000000,98.000000) scale(0.100000,-0.100000)"
fill="#000000" stroke="none">
<path d="M584 969 c-98 -9 -263 -39 -268 -48 -2 -3 5 -79 15 -169 13 -117 27
-188 49 -253 41 -122 44 -128 59 -100 10 18 9 31 -5 67 -22 57 -14 131 21 190
28 48 31 50 59 29 18 -13 17 -15 -4 -45 -33 -46 -37 -107 -11 -158 30 -58 68
-76 148 -69 l64 6 21 -44 c12 -25 25 -45 28 -45 4 0 17 23 30 50 18 38 28 49
39 44 42 -17 105 -16 137 1 35 19 74 84 74 123 0 29 -23 83 -43 104 -15 15
-14 17 9 33 31 20 44 12 73 -50 25 -53 28 -133 6 -176 -12 -23 -13 -34 -4 -51
11 -21 12 -21 29 13 35 68 61 177 78 334 13 115 15 162 7 167 -21 13 -182 38
-305 48 -141 11 -190 11 -306 -1z m-85 -169 c22 -11 47 -20 56 -20 9 0 57 -10
106 -21 77 -19 97 -20 142 -10 28 6 85 18 125 26 91 19 128 37 152 78 l20 32
0 -35 c0 -44 -35 -105 -80 -141 -19 -16 -66 -40 -105 -54 -83 -30 -112 -56
-135 -125 -19 -55 -23 -55 -35 -2 -11 54 -58 97 -135 127 -124 47 -173 96
-186 186 l-6 44 21 -32 c11 -18 38 -41 60 -53z m472 -206 c53 -56 11 -144 -67
-144 -92 0 -117 128 -32 164 39 17 71 10 99 -20z m-296 1 c34 -33 34 -84 -1
-119 -55 -55 -144 -18 -144 59 0 49 36 85 85 85 25 0 44 -8 60 -25z"/>
<path d="M870 560 c-15 -29 -3 -59 26 -66 30 -8 54 11 54 40 0 46 -59 64 -80
26z"/>
<path d="M582 568 c-28 -28 -7 -78 33 -78 12 0 26 5 33 12 28 28 7 78 -33 78
-12 0 -26 -5 -33 -12z"/>
<path d="M466 361 c-12 -23 -13 -32 -3 -45 11 -15 15 -13 30 19 26 55 1 80
-27 26z"/>
<path d="M1022 381 c-11 -6 -10 -15 4 -45 12 -25 20 -32 26 -24 19 30 -5 85
-30 69z"/>
<path d="M530 310 c-22 -43 -25 -66 -10 -75 11 -7 63 92 55 105 -12 19 -25 10
-45 -30z"/>
<path d="M953 342 c-7 -5 -2 -25 17 -62 23 -44 30 -51 35 -37 5 10 0 35 -10
58 -21 45 -26 51 -42 41z"/>
<path d="M590 260 c-26 -54 -31 -73 -22 -82 15 -15 13 -17 55 69 31 60 34 72
21 77 -9 3 -17 6 -18 6 -1 0 -17 -32 -36 -70z"/>
<path d="M897 246 c28 -56 40 -73 49 -65 20 16 -36 133 -65 137 -21 3 -20 0
16 -72z"/>
<path d="M661 221 l-43 -86 66 -62 c36 -35 70 -63 75 -63 5 0 39 28 76 63 l67
62 -43 87 c-40 82 -44 86 -67 77 -14 -6 -37 -6 -56 0 l-33 8 -42 -86z"/>
</g>
</svg>
