<?xml version="1.0" standalone="no"?>
<!DOCTYPE svg PUBLIC "-//W3C//DTD SVG 20010904//EN"
 "http://www.w3.org/TR/2001/REC-SVG-20010904/DTD/svg10.dtd">
<svg version="1.0" xmlns="http://www.w3.org/2000/svg"
 width="16.000000pt" height="16.000000pt" viewBox="0 0 16.000000 16.000000"
 preserveAspectRatio="xMidYMid meet">
<metadata>
Created by potrace 1.10, written by Peter Selinger 2001-2011
</metadata>
<g transform="translate(0.000000,16.000000) scale(0.100000,-0.100000)"
fill="#000000" stroke="none">
<path d="M37 153 c-23 -4 -27 -9 -27 -37 0 -21 11 -47 32 -74 33 -43 43 -49
52 -33 9 13 -4 42 -18 40 -15 -3 -46 11 -46 21 0 10 20 8 37 -3 7 -5 19 -5 26
0 17 11 37 13 37 3 0 -4 -7 -10 -15 -14 -8 -3 -15 -11 -15 -18 0 -7 12 0 25
15 17 19 25 40 25 64 0 34 -1 35 -35 31 -19 -2 -35 0 -35 4 0 4 -3 7 -7 7 -5
-1 -20 -4 -36 -6z m43 -27 c14 0 32 4 40 7 11 5 15 1 15 -18 0 -14 -2 -25 -5
-26 -20 -4 -92 -4 -98 1 -4 3 -7 15 -8 28 0 17 3 21 15 16 9 -4 27 -8 41 -8z"/>
<path d="M40 102 c0 -5 7 -9 15 -9 8 0 12 4 9 9 -7 10 -24 10 -24 0z"/>
<path d="M96 102 c-3 -5 1 -9 9 -9 8 0 15 4 15 9 0 10 -17 10 -24 0z"/>
</g>
</svg>
